<?xml version="1.0" encoding="iso-8859-1"?>
<!-- Uploaded to: SVG Repo, www.svgrepo.com, Generator: SVG Repo Mixer Tools -->
<svg height="800px" width="800px" version="1.1" id="Capa_1" xmlns="http://www.w3.org/2000/svg" xmlns:xlink="http://www.w3.org/1999/xlink" 
	 viewBox="0 0 473.026 473.026" xml:space="preserve">
<g>
	<g>
		<g>
			<path style="fill:#010002;" d="M236.501,0.004C106.094,0.004,0,106.098,0,236.513c0,130.399,106.094,236.509,236.501,236.509
				c130.415,0,236.525-106.11,236.525-236.509C473.026,106.098,366.916,0.004,236.501,0.004z M236.501,433.972
				c-108.882,0-197.459-88.569-197.459-197.459S127.619,39.046,236.501,39.046c108.89,0,197.467,88.577,197.467,197.467
				S345.399,433.972,236.501,433.972z"/>
		</g>
		<g>
			<path style="fill:#010002;" d="M358.503,121.494l-144.103,85.578c-0.886,0.536-1.471,1.423-1.601,2.471
				c-0.024,0.13-0.024,0.244,0,0.341l-87.789,147.769l1.52,1.52l147.33-87.512c0.244,0.065,0.504,0.089,0.756,0.089l0.39-0.024
				c1.065-0.114,1.935-0.707,2.463-1.585l85.578-144.095c0.553-0.943,0.553-2.105-0.024-3.113
				C362.112,121.299,359.966,120.608,358.503,121.494z M350.683,133.857l-76.75,129.212l-52.454-52.454L350.683,133.857z"/>
		</g>
	</g>
</g>
</svg>